<svg xmlns="http://www.w3.org/2000/svg" viewBox="0 0 400 280">
<rect width="400" height="280" fill="#1a0a00"/>
<rect x="0" y="220" width="400" height="60" fill="#0d0600"/>
<ellipse cx="200" cy="230" rx="80" ry="18" fill="#cc3300" opacity="0.5"/>
<path d="M200 260 C180 240 160 210 170 180 C155 200 140 185 150 160 C135 175 120 155 135 130 C115 150 100 130 120 100 C100 115 95 90 110 70 C95 85 100 60 120 45 C110 60 120 40 140 30 C130 50 145 35 160 25 C145 45 155 30 175 20 C160 42 170 28 190 18 C175 42 185 30 200 20 C200 20 215 30 225 18 C210 30 220 42 205 20 C225 28 235 42 220 25 C240 35 255 45 240 30 C260 40 270 60 260 45 C280 55 285 80 270 65 C290 85 285 110 265 95 C280 120 265 145 250 130 C265 155 248 175 235 160 C245 185 230 200 215 180 C225 210 210 240 200 260Z" fill="#ff6600"/>
<path d="M200 260 C185 235 175 205 182 178 C170 195 160 182 168 158 C155 172 148 155 158 135 C145 150 140 133 152 115 C138 130 140 110 155 95 C148 110 155 92 168 80 C160 95 168 78 183 70 C174 85 182 70 195 62 C185 78 192 65 205 58 C192 75 200 62 210 55 C200 55 212 73 205 60 C218 68 225 85 215 72 C228 82 232 100 220 88 C232 105 225 125 215 112 C225 132 215 150 205 138 C212 160 200 180 200 200 C200 220 200 240 200 260Z" fill="#ffaa00"/>
<path d="M200 260 C192 238 188 212 194 192 C186 205 180 195 185 178 C178 188 175 175 182 162 C175 172 173 160 180 148 C173 158 174 145 182 135 C176 145 178 133 186 125 C180 133 183 122 191 118 C186 126 190 116 197 112 C191 120 194 111 200 108 C200 108 206 111 209 103 C203 111 206 120 200 112 C208 116 211 126 206 118 C214 125 216 136 210 128 C217 138 215 150 208 142 C214 155 210 167 204 158 C208 172 205 185 200 175 C200 200 200 230 200 260Z" fill="#ffdd00" opacity="0.9"/>
</svg>