<svg xmlns="http://www.w3.org/2000/svg" viewBox="0 0 400 280">
<rect width="400" height="280" fill="#0d1a0d"/>
<circle cx="200" cy="140" r="70" fill="none" stroke="#1a5c1a" stroke-width="1" opacity="0.6"/>
<circle cx="200" cy="140" r="50" fill="none" stroke="#1a5c1a" stroke-width="1" opacity="0.7"/>
<circle cx="200" cy="140" r="30" fill="#1a5c1a" opacity="0.8"/>
<circle cx="200" cy="140" r="12" fill="#2d8c2d" opacity="0.9"/>
<circle cx="140" cy="100" r="22" fill="#1a5c1a" opacity="0.7"/>
<circle cx="140" cy="100" r="8" fill="#2d8c2d" opacity="0.9"/>
<circle cx="260" cy="110" r="18" fill="#1a5c1a" opacity="0.6"/>
<circle cx="260" cy="110" r="6" fill="#2d8c2d" opacity="0.9"/>
<circle cx="150" cy="185" r="25" fill="#1a5c1a" opacity="0.7"/>
<circle cx="150" cy="185" r="9" fill="#2d8c2d" opacity="0.9"/>
<circle cx="255" cy="180" r="20" fill="#1a5c1a" opacity="0.6"/>
<circle cx="255" cy="180" r="7" fill="#2d8c2d" opacity="0.9"/>
<circle cx="100" cy="155" r="14" fill="#145214" opacity="0.7"/>
<circle cx="305" cy="150" r="16" fill="#145214" opacity="0.6"/>
<circle cx="200" cy="55" r="12" fill="#145214" opacity="0.5"/>
<circle cx="200" cy="225" r="11" fill="#145214" opacity="0.5"/>
<line x1="200" y1="128" x2="200" y2="90" stroke="#2d8c2d" stroke-width="1.5" opacity="0.6"/>
<line x1="200" y1="128" x2="148" y2="108" stroke="#2d8c2d" stroke-width="1.5" opacity="0.6"/>
<line x1="200" y1="128" x2="252" y2="116" stroke="#2d8c2d" stroke-width="1.5" opacity="0.6"/>
<line x1="200" y1="152" x2="158" y2="178" stroke="#2d8c2d" stroke-width="1.5" opacity="0.6"/>
<line x1="200" y1="152" x2="247" y2="172" stroke="#2d8c2d" stroke-width="1.5" opacity="0.6"/>
</svg>